<svg width="20" height="14" viewBox="0 0 20 14" fill="none" xmlns="http://www.w3.org/2000/svg">
<path d="M0 7C0 7 3.71875 0 9.91667 0C16.1146 0 19.8333 7 19.8333 7C19.8333 7 16.1146 14 9.91667 14C3.71875 14 0 7 0 7ZM9.91667 11.4545C11.0673 11.4545 12.1708 10.9852 12.9845 10.1498C13.7981 9.31445 14.2552 8.18142 14.2552 7C14.2552 5.81858 13.7981 4.68555 12.9845 3.85016C12.1708 3.01477 11.0673 2.54545 9.91667 2.54545C8.76601 2.54545 7.66249 3.01477 6.84885 3.85016C6.03522 4.68555 5.57813 5.81858 5.57813 7C5.57813 8.18142 6.03522 9.31445 6.84885 10.1498C7.66249 10.9852 8.76601 11.4545 9.91667 11.4545Z" fill="white"/>
</svg>
